<?xml version="1.0" encoding="UTF-8"?>
<svg width="1200pt" height="1200pt" version="1.1" viewBox="0 0 1200 1200" xmlns="http://www.w3.org/2000/svg">
 <path d="m581.39 975.66 130.71-267.38-11.113-39.156-74.258 76.883c-23.27 20.652-57.84-14.629-35.102-37.391l129.12-148c14.125-10.043 20.461-13.57 34.895-21.145 16.246-7.5859 19.777-7.5859 34.969 6.1562l115.52 117.66c4.2344 4.5977 5.6406 3.5273 7.2461 13.57v57.672c0 25.598-47.641 25.246-48-0.32422v-45l-43.223-31.031-15.684 42.84c35.965 96.145 65.41 183.28 101.41 279.05 16.246 45.359-39.492 67.57-61.559 23.664l-89.941-239.03c-40.57 82.223-76.379 160.2-116.96 242.03-23.102 42.324-80.258 9.7109-58.035-31.066z" fill-rule="evenodd"/>
 <path d="m880.15 1031c-15.254 0-28.703-9.3594-36.898-25.691l-87.266-231.89c-18.301 37.234-35.902 74.09-52.945 109.8-19.414 40.668-39.492 82.715-60.504 125.07-7.5586 13.859-19.621 21.742-33.156 21.742-12.672 0-25.066-7.0938-31.586-18.059-6.7578-11.387-6.5625-24.852 0.5625-37.934l130.05-266.06-9.1094-32.113-70.094 72.574c-5.4375 4.8359-11.652 7.2969-18.168 7.2969-11.773 0-23.34-8.0742-28.141-19.633-4.4023-10.621-2.1133-21.516 6.2773-29.902l128.96-147.83c14.773-10.621 21.191-14.219 35.891-21.926 7.8359-3.6602 12.613-5.4961 17.34-5.4961 6.9102 0 12.457 3.9258 21.551 12.145l115.67 117.79c0.92578 1.0078 1.6562 1.6797 2.2812 2.2578 3.2383 3.0117 4.5977 4.9336 5.9023 13.188l0.046875 58.223c0 15.445-14.039 22.477-27.086 22.477-13.668 0-27.625-7.8125-27.828-22.754v-43.273l-38.09-27.336-13.68 37.367c17.375 46.465 33.469 91.512 49.043 135.09 16.465 46.066 33.492 93.707 51.926 142.75 5.1133 14.258 3.9609 27.695-3.2031 37.859-6.25 8.9297-16.641 14.246-27.754 14.258zm-123.34-274.93 92.746 246.48c6.8398 13.57 18.035 21.539 30.574 21.539 8.8672 0 17.148-4.2344 22.129-11.305 5.832-8.2812 6.6836-19.477 2.3633-31.512-18.434-49.055-35.473-96.719-51.949-142.81-15.695-43.922-31.922-89.328-49.441-136.19l-0.44531-1.1992 17.688-48.312 48.348 34.727v46.766c0.15625 10.906 10.957 15.887 20.914 15.887 9.7188 0 20.172-4.8594 20.172-15.562v-57.672c-1.0195-6.1445-1.7148-6.7695-3.7578-8.6758-0.74219-0.69531-1.5859-1.4766-2.5781-2.5547l-115.44-117.57c-8.6289-7.7891-12.574-10.211-16.766-10.211-3.4219 0-7.6562 1.6797-14.27 4.7656-14.258 7.4766-20.531 11.004-34.355 20.832l-128.51 147.44c-8.8086 8.8203-6.8633 17.902-4.9453 22.547 3.6953 8.9023 12.84 15.359 21.758 15.359 4.8711 0 9.3711-1.8008 13.391-5.375l78.254-81.012 13.117 46.199-131.32 268.59c-5.9883 10.98-6.2266 22.02-0.75781 31.234 5.293 8.9141 15.359 14.688 25.645 14.688 11.09 0 20.688-6.4062 27.023-18.023 20.914-42.203 40.98-84.227 60.383-124.86 18.156-38.027 36.926-77.328 56.52-117.05z"/>
 <path d="m724.8 438.38c24 0 43.754 19.766 43.754 43.586 0 23.977-19.754 43.559-43.754 43.559-23.809 0-43.559-19.586-43.559-43.559 0.011718-23.809 19.75-43.586 43.559-43.586z" fill-rule="evenodd"/>
 <path d="m724.8 528.98c-25.922 0-47.016-21.098-47.016-47.016 0-25.945 21.098-47.039 47.016-47.039 26.027 0 47.207 21.098 47.207 47.039 0 25.918-21.18 47.016-47.207 47.016zm0-87.145c-21.742 0-40.105 18.371-40.105 40.129 0 22.117 17.988 40.105 40.105 40.105 22.223 0 40.285-17.988 40.285-40.105 0.011718-22.129-18.062-40.129-40.285-40.129z"/>
 <path d="m23.316 283.01c-9.1797 55.559 23.809 142.7-4.7656 203.71-1.0547 72.504 13.922 138.48 8.125 214.3-2.8203 33-12 71.27-3.875 103.74 10.234 41.102 46.031 105.47 55.211 156.28 31.391 19.031 18.348 91.906 51.324 118.02 20.641 2.6406 68.27 3.6836 68.27 20.449 15.516 0 117.83 0.52734 117.83 16.246 51.312 0 100.52 23.785 153.09 28.199 47.988 3.7305 90.84 4.7656 144.28-15.684 78.504 4.2461 162.79-1.0664 241.84-1.0664l172.5-4.9219c17.305 0 31.402-6.5273 58.367-23.293 14.148-14.113 34.598-23.809 52.945-41.102 9.8633-22.223 33.492-37.922 35.797-65.977 6.5273-83.27 5.8086-149.75-7.043-233.54l-34.602-300.2c-6.4805-70.391 2.6758-154.69 9.168-225.1 2.6875-39.84-17.785-90.301-27.672-125.91-3.168 0-30.18-41.113-44.258-47.102-60.012 8.125-157.36 20.09-194.75 14.113-53.438-8.6523-145.52-31.945-223.84-21.18-31.922 4.4023-161.75 4.9336-200.72 21.695l-221.2 2.1133c-52.922 0-109.71 15.191-152.4 41.102-29.27 52.582-46.035 120.66-53.617 165.12m204.96-122.79c22.738-16.934 94.727-9.8633 111.48-9.8633 13.586 27.156 22.223 64.391 24.336 144.98l-0.52734 104.95c2.1367 28.57 28.043 30.875 28.043 0l0.52734-146.05c0-29.809 12-81.66 18.527-95.23 14.484-30.156 24.863-29.629 39.863-4.2344 19.055 30.336 26.641 99.469 26.641 121.7 3.168 22.043 25.922 19.945 24.875 0 0-31.402 17.809-121.19 46.906-145.51 15.719-13.055 31.402-14.113 66.684-12.527 5.8203 8.832 10.754 27.156 13.402 43.934 6 35.629 10.234 71.426 10.234 90.301 0 24.863 26.113 29.641 26.113-1.043 0-27.18 3.1797-70.379 4.7539-79.559 2.8086-15.18 4.957-39.527 20.125-47.09 23.797-12.359 71.27-5.832 82.188 15.168 25.414 49.715 41.641 138.98 37.754 202.31-1.5703 35.09 29.27 31.922 29.27 0 0-17.832 0.52734-60.145 6.0117-74.09 8.125-20.617 19.402-58.906 34.57-64.367 4.7539-38.473 77.785-10.754 103.16-14.137 29.305-3.1562 53.102-21.504 72-36.672l20.09 168.1c2.125 18.348 3.1914 56.797 9.707 73.031 1.0547 45.504 6.5156 121.18 9.7188 153.12l3.1797 197.89-6.3711 162.8c0 12.324-9.8281 79.547-25.367 79.547 0 15.516-45.504 41.629-61.223 41.629 0 31.738-98.426 15.707-117.31 15.707l-230.33-2.832-191.63-0.007812c-15.695 0-92.41 6.0117-92.41-12.863-41.641 0-47.641-100.71-52.402-132.12-8.1016-53.449-20.629-107.05-20.629-170.73 2.1016-22.754-22.766-28.766-22.766 0 0 60.48-25.391 104.77-50.797 156.27-30.863-67.02-78.301-118.54-78.301-204.45 0-10.234-3.8867-55.738-2.8203-86.594 0.52734-16.766-22.043-17.82-22.043-2.1367 0 8.6523-10.945 80.113-13.598 91.922-2.6406 12-9.6953 44.449-16.223 51.336-17.293-43.789-21.695-140.61-21.695-185.4 0-48.18-6.5391-112.03 12.516-153.12 9.168-19.414 34.57-55.738 25.391-77.785 3.1797-7.0547 3.1797-3.875 0-10.402 3.1797-9.1797 0-42.695 18.887-42.695 0-5.9883 40.031-34.043 46.043-34.043 10.223-22.754 11.27-45.504 20.977-45.504 0.003906-14.461 22.238-19.93 32.465-23.641z" fill-rule="evenodd"/>
</svg>
